<?xml version="1.0" standalone="no"?>
<!DOCTYPE svg PUBLIC "-//W3C//DTD SVG 20010904//EN"
 "http://www.w3.org/TR/2001/REC-SVG-20010904/DTD/svg10.dtd">
<svg version="1.0" xmlns="http://www.w3.org/2000/svg"
 width="1148.000000pt" height="1015.000000pt" viewBox="0 0 1148.000000 1015.000000"
 preserveAspectRatio="xMidYMid meet">

<g transform="translate(0.000000,1015.000000) scale(0.100000,-0.100000)"
fill="#E41036" stroke="none">
<path d="M2961 9215 c-544 -73 -1047 -320 -1453 -713 -424 -411 -686 -930
-764 -1512 -20 -151 -23 -471 -5 -615 62 -499 251 -945 571 -1345 46 -58 262
-285 480 -505 459 -463 3923 -3969 3984 -4033 l41 -42 1910 1931 c2566 2595
2556 2584 2666 2731 265 355 429 746 495 1183 25 167 26 551 1 715 -51 331
-161 648 -321 924 -397 684 -1029 1131 -1793 1268 -112 20 -161 23 -398 23
-300 0 -383 -9 -620 -70 -187 -48 -318 -98 -500 -189 -459 -232 -813 -560
-1075 -997 -201 -335 -315 -688 -352 -1096 l-13 -138 -7 110 c-15 219 -73 484
-153 701 -93 250 -279 567 -457 779 -394 467 -928 774 -1523 876 -157 28 -557
35 -714 14z m569 -4250 l0 -1165 -180 0 -180 0 0 1165 0 1165 180 0 180 0 0
-1165z m2438 -2 l2 -1163 -175 0 -175 0 0 1165 0 1165 173 -2 172 -3 3 -1162z
m-1668 -438 l0 -725 -175 0 -175 0 0 725 0 725 175 0 175 0 0 -725z m900 0 l0
-725 -165 0 -165 0 0 725 0 725 165 0 165 0 0 -725z m1670 0 l0 -725 -160 0
-160 0 0 725 0 725 160 0 160 0 0 -725z m770 0 l0 -725 -160 0 -160 0 0 725 0
725 160 0 160 0 0 -725z m750 0 l0 -725 -160 0 -160 0 0 725 0 725 160 0 160
0 0 -725z"/>
</g>
</svg>
